<?xml version="1.0" encoding="UTF-8" standalone="no"?>
<!DOCTYPE svg PUBLIC "-//W3C//DTD SVG 1.1//EN" "http://www.w3.org/Graphics/SVG/1.1/DTD/svg11.dtd">
<svg version="1.1" xmlns="http://www.w3.org/2000/svg" xmlns:xlink="http://www.w3.org/1999/xlink" preserveAspectRatio="xMidYMid meet" viewBox="0 0 640 640" width="640" height="640"><defs><path d="M613.23 0C628.01 0 640 11.99 640 26.77C640 149.48 640 490.82 640 613.52C640 628.31 628.01 640.3 613.23 640.3C490.58 640.3 149.42 640.3 26.77 640.3C11.99 640.3 0 628.31 0 613.52C0 490.82 0 149.48 0 26.77C0 11.99 11.99 0 26.77 0C149.42 0 490.58 0 613.23 0Z" id="a1aosm0qNR"></path><path d="M93.84 552.22L109.39 318.41L97.79 136.15L150.36 215.49L134.23 442.59L145.52 552.22L93.84 552.22Z" id="c6NVOIsweV"></path><path d="M98.1 113.9L137.51 85.32L243.86 266.11L311.23 432.42L267.14 425.25L180.66 228.21L98.1 113.9Z" id="kzvqc4shq"></path><path d="M314.52 477.17L348.64 469.36L385.79 391.38L487.75 231.51L540.67 137.77L513.78 104.2L417.99 280.65L368.38 357.34L319.56 445.64L270.77 437.91L314.52 477.17Z" id="a24KY2rQrO"></path><path d="M532.07 272.26L532.07 495.11L550.07 543.97L497.35 543.97L507.03 386.06L497.35 249.54L544.98 159.53L532.07 272.26Z" id="bPAWO9uLa"></path></defs><g><g><g><use xlink:href="#a1aosm0qNR" opacity="1" fill="#e60916" fill-opacity="1"></use></g><g><use xlink:href="#c6NVOIsweV" opacity="1" fill="#ffffff" fill-opacity="1"></use><g><use xlink:href="#c6NVOIsweV" opacity="1" fill-opacity="0" stroke="#000000" stroke-width="0" stroke-opacity="1"></use></g></g><g><use xlink:href="#kzvqc4shq" opacity="1" fill="#ffffff" fill-opacity="1"></use><g><use xlink:href="#kzvqc4shq" opacity="1" fill-opacity="0" stroke="#000000" stroke-width="0" stroke-opacity="1"></use></g></g><g><use xlink:href="#a24KY2rQrO" opacity="1" fill="#ffffff" fill-opacity="1"></use><g><use xlink:href="#a24KY2rQrO" opacity="1" fill-opacity="0" stroke="#000000" stroke-width="0" stroke-opacity="1"></use></g></g><g><use xlink:href="#bPAWO9uLa" opacity="1" fill="#ffffff" fill-opacity="1"></use><g><use xlink:href="#bPAWO9uLa" opacity="1" fill-opacity="0" stroke="#000000" stroke-width="0" stroke-opacity="1"></use></g></g></g></g></svg>