<?xml version="1.0" standalone="no"?>
<!DOCTYPE svg PUBLIC "-//W3C//DTD SVG 20010904//EN"
 "http://www.w3.org/TR/2001/REC-SVG-20010904/DTD/svg10.dtd">
<svg version="1.0" xmlns="http://www.w3.org/2000/svg"
 width="640.000000pt" height="640.000000pt" viewBox="0 0 640.000000 640.000000"
 preserveAspectRatio="xMidYMid meet">
<metadata>
Created by potrace 1.11, written by Peter Selinger 2001-2013
</metadata>
<g transform="translate(0.000000,640.000000) scale(0.100000,-0.100000)"
fill="#000000" stroke="none">
<path d="M176 6385 c-22 -8 -51 -22 -65 -33 -39 -29 -89 -98 -101 -140 -7 -25
-10 -996 -10 -3022 l0 -2985 24 -50 c28 -60 99 -127 154 -143 57 -17 5987 -17
6044 0 56 17 131 87 157 147 l21 50 -2 3003 c-3 2850 -4 3005 -21 3035 -28 52
-77 102 -121 126 l-41 22 -3000 2 c-2558 2 -3006 0 -3039 -12z m1730 -1742
l528 -898 336 -830 c185 -456 334 -831 330 -833 -9 -3 -421 65 -427 72 -2 2
-195 439 -429 970 -233 532 -428 975 -434 986 -5 10 -192 271 -416 580 -223
309 -404 565 -402 570 3 10 369 279 379 280 4 0 244 -404 535 -897z m3362 551
c68 -85 125 -160 128 -167 2 -7 -116 -226 -264 -487 -224 -397 -352 -605 -772
-1265 l-504 -790 -184 -385 c-101 -212 -185 -386 -187 -388 -1 -2 -78 -21
-171 -43 -164 -38 -168 -39 -188 -21 -152 135 -406 364 -406 366 0 1 107 -15
237 -36 130 -20 238 -36 240 -35 1 2 114 206 251 453 197 357 298 526 493 826
234 361 263 412 719 1252 261 482 477 876 480 875 3 0 60 -70 128 -155z
m-4018 -568 l252 -378 -81 -1142 -81 -1141 55 -525 c30 -289 55 -533 55 -542
0 -17 -19 -18 -256 -18 l-255 0 6 83 c4 45 39 570 79 1167 l72 1085 -52 820
c-29 451 -55 858 -58 905 -4 50 -3 81 3 75 5 -6 122 -180 261 -389z m4130
-409 l-60 -526 0 -1123 0 -1123 89 -240 88 -240 -255 -3 c-140 -1 -257 0 -260
3 -3 3 16 358 42 789 l48 784 -48 684 -48 684 229 434 c127 238 231 427 233
418 2 -8 -24 -252 -58 -541z"/>
</g>
</svg>
